<svg width="23" height="24" viewBox="0 0 23 24" fill="none" xmlns="http://www.w3.org/2000/svg">
<path d="M22.3794 10.5039C22.3789 10.5034 22.3783 10.5028 22.3778 10.5023L12.9956 1.12048C12.5957 0.720398 12.064 0.5 11.4985 0.5C10.9329 0.5 10.4012 0.720222 10.0011 1.12031L0.623879 10.4974C0.620721 10.5006 0.617562 10.5039 0.614403 10.507C-0.206825 11.333 -0.205421 12.6731 0.618439 13.497C0.994836 13.8736 1.49196 14.0917 2.02348 14.1145C2.04506 14.1166 2.06682 14.1176 2.08875 14.1176H2.46269V21.0221C2.46269 22.3884 3.57433 23.5 4.94094 23.5H8.61155C8.98356 23.5 9.28538 23.1984 9.28538 22.8262V17.4131C9.28538 16.7896 9.7925 16.2825 10.416 16.2825H12.581C13.2045 16.2825 13.7116 16.7896 13.7116 17.4131V22.8262C13.7116 23.1984 14.0132 23.5 14.3854 23.5H18.056C19.4226 23.5 20.5343 22.3884 20.5343 21.0221V14.1176H20.881C21.4464 14.1176 21.9781 13.8974 22.3783 13.4973C23.2031 12.6721 23.2034 11.3297 22.3794 10.5039Z" fill="#2D60FF"/>
</svg>
