<svg width="836" height="816" viewBox="0 0 836 816" fill="none" xmlns="http://www.w3.org/2000/svg">
<rect width="1254.7" height="884.732" transform="translate(0 956.456) rotate(-65.6914)" fill="#344293"/>
<path d="M503.718 -263L1117.09 22.3846L756.244 798.695C742.509 828.243 707.425 841.054 677.882 827.308L208.667 608.997C158.593 585.699 136.872 526.213 160.151 476.13L503.718 -263Z" fill="url(#paint0_linear_359_21808)" fill-opacity="0.7"/>
<g clip-path="url(#clip0_359_21808)">
<path d="M591.737 445.789L565.481 445.789L565.481 669.635C565.481 673.147 564.79 676.625 563.445 679.87C562.101 683.114 560.132 686.063 557.648 688.546C555.165 691.03 552.216 692.999 548.972 694.344C545.727 695.688 542.249 696.379 538.737 696.379L338 696.379L338 696.635C338 700.147 338.692 703.625 340.036 706.87C341.38 710.115 343.35 713.063 345.833 715.546C348.317 718.03 351.265 719.999 354.51 721.344C357.754 722.688 361.232 723.379 364.744 723.379L591.737 723.379C595.249 723.379 598.727 722.688 601.972 721.344C605.216 719.999 608.165 718.03 610.648 715.546C613.131 713.063 615.101 710.114 616.445 706.87C617.789 703.625 618.481 700.147 618.481 696.635L618.481 472.533C618.481 465.44 615.664 458.637 610.648 453.622C605.633 448.606 598.83 445.789 591.737 445.789Z" fill="#F2F2F2"/>
<path d="M716.202 801.515C716.667 801.537 717.127 801.415 717.52 801.166C717.914 800.917 718.221 800.553 718.4 800.124C718.58 799.694 718.623 799.22 718.524 798.766C718.425 798.311 718.189 797.898 717.847 797.582L717.691 796.964C717.712 796.914 717.733 796.865 717.753 796.815C718.221 795.709 719.006 794.766 720.009 794.105C721.011 793.443 722.187 793.093 723.388 793.097C724.589 793.102 725.762 793.461 726.759 794.13C727.757 794.799 728.535 795.748 728.995 796.857C730.833 801.285 733.174 805.721 733.75 810.403C734.004 812.473 733.897 814.571 733.434 816.604C737.752 807.184 739.995 796.945 740.009 786.583C740.01 783.982 739.866 781.384 739.576 778.8C739.337 776.681 739.006 774.578 738.582 772.49C736.267 761.158 731.298 750.538 724.082 741.5C720.589 739.594 717.764 736.664 715.989 733.103C715.345 731.824 714.891 730.457 714.639 729.047C715.033 729.099 716.124 723.099 715.827 722.73C716.376 721.897 717.359 721.483 717.958 720.67C720.941 716.627 725.05 717.333 727.195 722.827C731.777 725.14 731.821 728.975 729.01 732.664C727.221 735.011 726.975 738.186 725.406 740.699C725.567 740.906 725.735 741.106 725.896 741.313C728.848 745.108 731.421 749.184 733.577 753.481C733.053 748.667 733.679 743.797 735.404 739.272C737.152 735.054 740.429 731.502 743.314 727.857C744.078 726.877 745.114 726.146 746.293 725.756C747.471 725.365 748.739 725.333 749.936 725.663C751.133 725.993 752.205 726.67 753.017 727.61C753.829 728.549 754.345 729.708 754.498 730.94C754.504 730.994 754.51 731.047 754.516 731.101C754.087 731.343 753.668 731.6 753.257 731.871C752.741 732.216 752.342 732.708 752.111 733.283C751.879 733.859 751.828 734.491 751.962 735.096C752.096 735.702 752.41 736.253 752.862 736.677C753.315 737.101 753.885 737.378 754.498 737.473L754.561 737.482C754.408 739.027 754.138 740.558 753.753 742.062C757.455 756.378 749.463 761.592 738.052 761.826C737.8 761.955 737.555 762.084 737.303 762.207C739.47 768.348 740.829 774.744 741.346 781.235C741.639 785.064 741.622 788.911 741.294 792.738L741.314 792.602C742.141 788.347 744.41 784.508 747.74 781.732C752.686 777.67 759.673 776.173 765.009 772.908C765.576 772.544 766.235 772.349 766.909 772.348C767.583 772.346 768.243 772.537 768.812 772.899C769.38 773.26 769.834 773.776 770.119 774.387C770.404 774.998 770.508 775.677 770.42 776.345L770.398 776.488C769.603 776.812 768.828 777.185 768.079 777.605C767.651 777.847 767.231 778.103 766.821 778.375C766.305 778.719 765.905 779.212 765.674 779.787C765.443 780.363 765.391 780.995 765.525 781.6C765.659 782.206 765.973 782.757 766.426 783.181C766.879 783.605 767.449 783.882 768.062 783.977L768.125 783.986C768.17 783.993 768.208 783.999 768.254 784.006C766.895 787.251 764.987 790.237 762.615 792.835C760.3 805.332 750.359 806.518 739.725 802.878L739.718 802.878C738.552 807.949 736.861 812.884 734.674 817.605L716.654 817.605C716.589 817.404 716.531 817.198 716.473 816.997C718.141 817.102 719.815 817.003 721.459 816.701C720.122 815.06 718.785 813.406 717.448 811.766C717.418 811.735 717.39 811.703 717.364 811.669C716.686 810.829 716.001 809.996 715.323 809.157L715.323 809.156C715.287 806.582 715.583 804.014 716.202 801.515Z" fill="#F2F2F2"/>
<path d="M517.724 415.339C518.382 416.336 519.249 417.178 520.264 417.807C521.28 418.436 522.419 418.837 523.605 418.982C524.79 419.127 525.993 419.013 527.13 418.648C528.267 418.282 529.311 417.674 530.19 416.865L567.655 433.768L574.878 424.555L530.234 404.804C528.763 403.426 526.837 402.636 524.822 402.582C522.806 402.529 520.842 403.217 519.3 404.516C517.758 405.814 516.746 407.633 516.456 409.628C516.165 411.623 516.617 413.655 517.724 415.339Z" fill="#FFD6C4"/>
<path d="M678.508 425.879L682.224 446.936C682.397 447.918 682.363 448.926 682.124 449.894C681.885 450.863 681.446 451.77 680.835 452.559C680.225 453.348 679.456 454 678.578 454.474C677.7 454.948 676.733 455.234 675.739 455.312L612.6 460.277L538.383 427.061L547.248 410.234L611.674 430.636L678.508 425.879Z" fill="#0066FF"/>
<path d="M530.737 410.789L303.744 410.789C288.974 410.789 277 422.763 277 437.533L277 661.635C277 676.406 288.974 688.379 303.744 688.379L530.737 688.379C545.508 688.379 557.481 676.406 557.481 661.635L557.481 437.533C557.481 422.763 545.508 410.789 530.737 410.789Z" fill="#F2F2F2"/>
<path d="M303.744 416.289C300.954 416.289 298.192 416.838 295.614 417.906C293.037 418.973 290.695 420.538 288.722 422.511C286.75 424.484 285.185 426.825 284.117 429.403C283.05 431.98 282.5 434.743 282.5 437.533L282.5 661.635C282.5 667.27 284.738 672.673 288.722 676.657C292.706 680.641 298.11 682.879 303.744 682.879L448.617 682.879C462.191 682.879 475.632 680.206 488.173 675.011C500.713 669.817 512.108 662.203 521.706 652.605C531.305 643.006 538.918 631.612 544.113 619.071C549.307 606.53 551.981 593.089 551.981 579.515L551.981 437.533C551.981 434.743 551.432 431.98 550.364 429.403C549.296 426.825 547.732 424.484 545.759 422.511C543.786 420.538 541.444 418.973 538.867 417.906C536.289 416.838 533.527 416.289 530.737 416.289L303.744 416.289Z" fill="white"/>
<path d="M480.696 484.3L353.289 484.3C352.12 484.3 350.999 483.836 350.172 483.009C349.346 482.182 348.881 481.061 348.881 479.892C348.881 478.723 349.346 477.602 350.172 476.775C350.999 475.948 352.12 475.484 353.289 475.484L480.696 475.484C481.865 475.484 482.986 475.948 483.813 476.775C484.639 477.602 485.104 478.723 485.104 479.892C485.104 481.061 484.639 482.182 483.813 483.009C482.986 483.836 481.865 484.3 480.696 484.3Z" fill="#F2F2F2"/>
<path d="M480.696 578.3L353.289 578.3C352.12 578.3 350.999 577.836 350.172 577.009C349.346 576.182 348.881 575.061 348.881 573.892C348.881 572.723 349.346 571.602 350.172 570.775C350.999 569.948 352.12 569.484 353.289 569.484L480.696 569.484C481.865 569.484 482.986 569.948 483.813 570.775C484.639 571.602 485.104 572.723 485.104 573.892C485.104 575.061 484.639 576.182 483.813 577.009C482.986 577.836 481.865 578.3 480.696 578.3Z" fill="#F2F2F2"/>
<path d="M532.433 531.331L301.552 531.331C300.383 531.331 299.262 530.866 298.435 530.04C297.609 529.213 297.144 528.092 297.144 526.923C297.144 525.754 297.609 524.632 298.435 523.806C299.262 522.979 300.383 522.515 301.552 522.515L532.433 522.515C533.602 522.515 534.723 522.979 535.55 523.806C536.376 524.632 536.841 525.754 536.841 526.923C536.841 528.092 536.376 529.213 535.55 530.04C534.723 530.866 533.602 531.331 532.433 531.331Z" fill="#F2F2F2"/>
<path d="M670.531 518.687L647.531 567.687L736.008 558.726L717.539 511.687L670.531 518.687Z" fill="#FFD6C4"/>
<path d="M691.101 800.32L682.712 800.249L678.999 767.138L691.379 767.243L691.101 800.32Z" fill="#FFD6C4"/>
<path d="M664.231 813.659C664.223 814.653 664.611 815.61 665.308 816.32C666.005 817.029 666.955 817.433 667.949 817.442L684.628 817.581L687.548 811.663L688.62 817.612L694.913 817.669L693.324 796.452L691.135 796.306L682.204 795.691L679.323 795.498L679.272 801.501L665.874 810.588C665.372 810.929 664.96 811.386 664.674 811.921C664.388 812.456 664.236 813.052 664.231 813.659Z" fill="#2F2E41"/>
<path d="M598.266 800.358L590.268 797.825L596.447 765.085L608.251 768.822L598.266 800.358Z" fill="#FFD6C4"/>
<path d="M568.663 805.214C568.363 806.162 568.452 807.19 568.91 808.073C569.368 808.956 570.158 809.621 571.105 809.922L587.007 814.956L591.537 810.156L590.814 816.158L596.813 818.061L601.528 797.314L599.477 796.531L591.122 793.319L588.424 792.288L586.612 798.011L571.136 802.761C570.556 802.939 570.028 803.256 569.597 803.683C569.166 804.11 568.846 804.635 568.663 805.214Z" fill="#2F2E41"/>
<path d="M731.979 544.946L651.531 559.687C651.531 559.687 638.628 569.339 642.08 572.796C645.531 576.252 646.067 575.717 643.799 577.985C641.531 580.252 636.628 583.284 636.58 585.268C636.531 587.252 600.531 676.252 600.531 676.252C600.531 676.252 604.531 674.252 601.531 677.252C598.531 680.252 598.531 682.731 598.531 682.731L584.531 777.252L607.268 778.591L629.531 692.418L679.191 611.914C679.191 611.914 684.118 683.703 684.325 688.478C684.531 693.252 687.531 687.252 684.531 693.252C681.531 699.252 679.531 695.252 681.531 699.252C683.531 703.252 674.327 784.687 674.327 784.687L695.08 784.687L739.59 615.896C739.59 615.896 755.426 567.64 731.979 544.946Z" fill="#2F2E41"/>
<path d="M708.28 409.934L676.055 406.586L667.706 417.425L657.98 422.606C653.864 424.798 650.466 428.129 648.194 432.201C645.921 436.274 644.87 440.914 645.165 445.568L656.531 511.687C656.531 511.687 646.93 533.306 653.531 538.687C660.132 544.068 648.428 557.394 662.531 550.687C676.635 543.98 737.531 551.687 737.531 551.687L724.531 514.687L734.243 478.33L735.312 447.844C735.511 442.148 733.821 436.545 730.504 431.909C727.186 427.274 722.429 423.866 716.972 422.217L715.614 421.807L708.28 409.934Z" fill="#0066FF"/>
<path d="M752.644 385.23C752.855 394.313 749.461 403.108 744.584 410.833C743.135 406.324 740.531 402.219 737.814 398.306C739.183 406.771 737.725 415.45 733.664 423.002C733.521 423.104 733.373 423.199 733.22 423.287C729.245 425.678 724.206 426.646 719.906 424.919C728.79 415.343 729.921 399.476 722.472 388.734C720.363 385.686 717.636 382.99 716.33 379.521C714.268 373.987 716.25 367.893 717.501 362.123C718.67 356.752 718.875 350.362 715.272 346.426C715.657 345.876 716.181 345.438 716.791 345.157C717.4 344.876 718.074 344.763 718.742 344.828C720.963 345.142 722.58 347.073 723.61 349.061C724.64 351.05 725.319 353.254 726.754 354.972C729.412 358.187 733.939 358.947 737.753 360.641C746.991 364.756 752.423 375.123 752.644 385.23Z" fill="#2F2E41"/>
<path d="M754.638 595.748C759.609 595.748 763.638 591.718 763.638 586.748C763.638 581.777 759.609 577.748 754.638 577.748C749.668 577.748 745.638 581.777 745.638 586.748C745.638 591.718 749.668 595.748 754.638 595.748Z" fill="#0066FF"/>
<path d="M674.886 380.037C675.414 378.189 671.776 389.483 673.531 389.687C681.528 390.605 692.505 395.38 698.075 397.608C698.326 397.579 698.576 397.55 698.82 397.514C699.417 397.448 700 397.354 700.576 397.244C713.544 394.791 718.531 374.869 718.531 374.687C718.531 373.792 716.382 349.194 712.996 348.83C712.107 348.734 711.213 348.685 710.318 348.685L701.916 348.685C700.177 348.31 698.415 348.055 696.641 347.92L696.627 347.92C679.711 346.631 666.374 356.941 667.62 369.487C667.628 369.501 667.643 369.516 667.65 369.53C668.011 370.069 668.329 370.579 668.609 371.067C668.882 371.525 669.111 371.962 669.31 372.377C670.851 375.581 666.888 379.612 669.516 380.365C673.011 381.365 660.324 414.258 674.158 414.258C667.429 416.171 673.43 385.134 674.886 380.037Z" fill="#2F2E41"/>
<path d="M689.986 399.337C700.973 399.337 709.88 390.43 709.88 379.443C709.88 368.456 700.973 359.55 689.986 359.55C678.999 359.55 670.093 368.456 670.093 379.443C670.093 390.43 678.999 399.337 689.986 399.337Z" fill="#FFD6C4"/>
<path d="M667.62 370.572C667.952 370.746 668.277 370.906 668.609 371.067C668.956 371.234 669.302 371.402 669.649 371.554C676.311 374.576 681.733 374.911 685.023 370.572C685.111 368.288 685.624 366.041 686.535 363.946C686.374 366.287 686.991 368.617 688.291 370.572L694.915 370.572C701.739 375.1 705.243 375.574 700.507 390.442C699.186 394.585 693.936 418.692 696.001 422.267C696.599 422.202 702.956 395.796 703.531 395.687C716.5 393.233 724.74 371.868 723.685 370.659C723.69 367.222 722.9 363.83 721.376 360.749C719.448 356.846 716.443 353.577 712.716 351.328C710.494 350.25 708.178 349.38 705.796 348.728C705.737 348.714 705.685 348.699 705.626 348.685C704.896 348.488 704.151 348.306 703.406 348.153C701.867 347.828 700.31 347.592 698.744 347.447C698.633 347.439 698.522 347.432 698.419 347.432C697.794 347.434 697.18 347.602 696.641 347.92C696.634 347.92 696.634 347.927 696.627 347.927C696.242 348.152 695.906 348.452 695.638 348.808C695.167 349.408 694.912 350.15 694.915 350.912L687.538 350.912C687.265 350.912 686.992 350.92 686.719 350.934C681.796 351.103 677.112 353.102 673.585 356.541C670.058 359.981 667.942 364.613 667.65 369.53C667.628 369.88 667.62 370.222 667.62 370.572Z" fill="#2F2E41"/>
<path d="M711.117 364.212C718.355 364.212 724.223 358.344 724.223 351.106C724.223 343.868 718.355 338 711.117 338C703.878 338 698.011 343.868 698.011 351.106C698.011 358.344 703.878 364.212 711.117 364.212Z" fill="#2F2E41"/>
<path d="M754.739 590.459C755.379 589.45 755.792 588.315 755.95 587.131C756.107 585.947 756.006 584.743 755.652 583.602C755.299 582.461 754.702 581.411 753.902 580.524C753.103 579.636 752.121 578.933 751.023 578.463L751.088 537.361L739.723 534.548L740.003 583.366C739.349 585.272 739.417 587.353 740.194 589.213C740.972 591.073 742.404 592.583 744.221 593.458C746.037 594.332 748.111 594.51 750.05 593.957C751.989 593.404 753.657 592.16 754.739 590.459Z" fill="#FFD6C4"/>
<path d="M698.464 439.477L716.148 427.459C716.973 426.898 717.906 426.516 718.887 426.337C719.869 426.158 720.877 426.187 721.846 426.421C722.816 426.655 723.726 427.089 724.518 427.695C725.31 428.301 725.967 429.066 726.446 429.941L756.849 485.5L756.966 566.811L737.984 565.621L730.191 498.491L698.464 439.477Z" fill="#0066FF"/>
<path d="M562.646 623.877L373.646 623.877C369.535 623.877 365.592 625.51 362.685 628.417C359.779 631.324 358.146 635.267 358.146 639.377C358.146 643.488 359.779 647.431 362.685 650.338C365.592 653.244 369.535 654.877 373.646 654.877L562.646 654.877C566.756 654.877 570.699 653.244 573.606 650.338C576.513 647.431 578.146 643.488 578.146 639.377C578.146 635.267 576.513 631.324 573.606 628.417C570.699 625.51 566.756 623.877 562.646 623.877Z" fill="white"/>
<path d="M562.646 655.877L373.646 655.877C369.27 655.877 365.073 654.139 361.978 651.045C358.884 647.95 357.146 643.754 357.146 639.377C357.146 635.001 358.884 630.805 361.978 627.71C365.073 624.616 369.27 622.877 373.646 622.877L562.646 622.877C567.022 622.877 571.219 624.616 574.313 627.71C577.407 630.805 579.146 635.001 579.146 639.377C579.146 643.754 577.407 647.95 574.313 651.045C571.219 654.139 567.022 655.877 562.646 655.877ZM373.646 624.877C369.8 624.877 366.112 626.405 363.393 629.124C360.673 631.844 359.146 635.532 359.146 639.377C359.146 643.223 360.673 646.911 363.393 649.63C366.112 652.35 369.8 653.877 373.646 653.877L562.646 653.877C566.491 653.877 570.179 652.35 572.899 649.63C575.618 646.911 577.146 643.223 577.146 639.377C577.146 635.532 575.618 631.844 572.899 629.124C570.179 626.405 566.491 624.877 562.646 624.877L373.646 624.877Z" fill="#0066FF"/>
<path d="M573.79 691.52L490.384 691.52C489.215 691.52 488.093 691.056 487.267 690.229C486.44 689.403 485.976 688.281 485.976 687.112C485.976 685.943 486.44 684.822 487.267 683.995C488.093 683.169 489.215 682.704 490.384 682.704L573.79 682.704C574.959 682.704 576.08 683.169 576.907 683.995C577.734 684.822 578.198 685.943 578.198 687.112C578.198 688.281 577.734 689.403 576.907 690.229C576.08 691.056 574.959 691.52 573.79 691.52Z" fill="#0066FF"/>
</g>
<defs>
<linearGradient id="paint0_linear_359_21808" x1="810.405" y1="-120.308" x2="424.384" y2="709.364" gradientUnits="userSpaceOnUse">
<stop stop-color="#1BADDE"/>
<stop offset="1" stop-color="#095073" stop-opacity="0"/>
</linearGradient>
<clipPath id="clip0_359_21808">
<rect width="493.461" height="480.848" fill="white" transform="translate(277 338)"/>
</clipPath>
</defs>
</svg>
