<svg width="827" height="816" viewBox="0 0 827 816" fill="none" xmlns="http://www.w3.org/2000/svg">
<rect width="1254.7" height="884.732" transform="translate(0 960.456) rotate(-65.6914)" fill="#344293"/>
<path d="M477.777 -188.874L1128.69 110.372L806.894 811.015C793.294 840.626 758.269 853.597 728.663 839.986L222.212 607.155C172.033 584.086 150.04 524.699 173.091 474.511L477.777 -188.874Z" fill="url(#paint0_linear_403_445)" fill-opacity="0.7"/>
<g clip-path="url(#clip0_403_445)">
<path d="M519.285 411.138L308.592 411.138C300.557 411.138 294.018 404.489 294.018 396.321C294.018 388.152 300.557 381.503 308.592 381.503L519.285 381.503C527.32 381.503 533.86 388.152 533.86 396.321C533.86 404.489 527.32 411.138 519.285 411.138ZM308.592 383.335C301.548 383.335 295.819 389.159 295.819 396.321C295.819 403.482 301.548 409.307 308.592 409.307L519.285 409.307C526.329 409.307 532.058 403.482 532.058 396.321C532.058 389.159 526.329 383.335 519.285 383.335L308.592 383.335Z" fill="white"/>
<path d="M519.285 584.545L308.592 584.545C300.801 584.545 294.468 578.107 294.468 570.185C294.468 562.263 300.801 555.825 308.592 555.825L519.285 555.825C527.077 555.825 533.409 562.263 533.409 570.185C533.409 578.107 527.077 584.545 519.285 584.545Z" fill="#2443DF"/>
<path d="M450.24 352.719L305.124 352.719C297.332 352.719 291 346.281 291 338.36C291 330.438 297.332 324 305.124 324L450.24 324C458.032 324 464.364 330.438 464.364 338.36C464.364 346.281 458.032 352.719 450.24 352.719Z" fill="white"/>
<path d="M519.285 469.09L308.592 469.09C300.557 469.09 294.018 462.441 294.018 454.272C294.018 446.103 300.557 439.455 308.592 439.455L519.285 439.455C527.32 439.455 533.86 446.103 533.86 454.272C533.86 462.441 527.32 469.09 519.285 469.09ZM308.592 441.286C301.548 441.286 295.819 447.111 295.819 454.272C295.819 461.434 301.548 467.258 308.592 467.258L519.285 467.258C526.329 467.258 532.058 461.434 532.058 454.272C532.058 447.111 526.329 441.286 519.285 441.286L308.592 441.286Z" fill="white"/>
<path d="M519.285 527.051L308.592 527.051C300.557 527.051 294.018 520.402 294.018 512.233C294.018 504.064 300.557 497.416 308.592 497.416L519.285 497.416C527.32 497.416 533.86 504.064 533.86 512.233C533.86 520.402 527.32 527.051 519.285 527.051ZM308.592 499.247C301.548 499.247 295.819 505.072 295.819 512.233C295.819 519.395 301.548 525.219 308.592 525.219L519.285 525.219C526.329 525.219 532.058 519.395 532.058 512.233C532.058 505.072 526.329 499.247 519.285 499.247L308.592 499.247Z" fill="white"/>
<path d="M301.35 370.861L356.568 370.861C357.883 370.861 358.955 371.942 358.955 373.288C358.955 374.625 357.883 375.715 356.568 375.715L301.35 375.715C300.035 375.715 298.963 374.634 298.963 373.288C298.963 371.951 300.035 370.861 301.35 370.861Z" fill="white"/>
<path d="M301.35 430.187L356.568 430.187C357.883 430.187 358.955 431.267 358.955 432.604C358.955 433.942 357.883 435.031 356.568 435.031L301.35 435.031C300.035 435.031 298.963 433.951 298.963 432.614C298.963 431.277 300.035 430.187 301.35 430.187Z" fill="white"/>
<path d="M301.35 489.521L356.568 489.521C357.883 489.521 358.955 490.602 358.955 491.948C358.955 493.285 357.883 494.366 356.568 494.366L301.35 494.366C300.035 494.366 298.963 493.285 298.963 491.939C298.963 490.602 300.035 489.521 301.35 489.521Z" fill="white"/>
<path d="M693.721 445.124L673.58 451.864L673.58 422.384L691.857 422.384L693.721 445.124Z" fill="#FFD6C4"/>
<path d="M676.075 430.544C687.159 430.544 696.144 421.409 696.144 410.14C696.144 398.871 687.159 389.736 676.075 389.736C664.991 389.736 656.005 398.871 656.005 410.14C656.005 421.409 664.991 430.544 676.075 430.544Z" fill="#FFD6C4"/>
<path d="M681.588 408.116C678.228 408.015 676.021 404.563 674.715 401.412C673.409 398.262 672.066 394.645 668.95 393.344C666.4 392.282 661.906 399.471 659.897 397.557C657.798 395.561 659.843 385.313 662.068 383.472C664.293 381.631 667.337 381.274 670.202 381.137C677.192 380.807 684.227 381.384 691.082 382.84C695.325 383.738 699.684 385.093 702.747 388.207C706.62 392.163 707.611 398.125 707.89 403.702C708.179 409.407 707.854 415.378 705.125 420.37C702.396 425.361 696.685 429.042 691.208 427.769C690.659 424.747 691.217 421.642 691.433 418.565C691.64 415.497 691.424 412.182 689.578 409.737C687.74 407.292 683.795 406.321 681.651 408.492" fill="#2F2E43"/>
<path d="M706.278 415.186C708.287 413.693 710.692 412.439 713.16 412.75C715.826 413.08 718.087 415.314 718.772 417.961C719.456 420.608 718.691 423.52 717.033 425.681C715.385 427.842 712.926 429.271 710.331 429.985C708.827 430.397 707.179 430.571 705.747 429.949C703.639 429.024 702.495 426.285 703.323 424.106" fill="#2F2E43"/>
<path d="M629.477 607.165C628.135 613.868 630.594 619.995 634.954 620.847C639.314 621.698 643.935 616.945 645.268 610.242C645.836 607.568 645.746 604.802 645.007 602.164L661.608 497.077L640.845 493.102L632.828 599.793C631.126 601.954 629.982 604.481 629.477 607.174L629.477 607.165Z" fill="#FFD6C4"/>
<path d="M673.364 438.337L659.194 438.337C649.178 439.885 646.457 445.316 644.178 455.353C640.701 470.665 636.26 491.051 637.143 491.353C638.557 491.829 662.68 503.368 674.976 500.731L673.364 438.337Z" fill="#0066FF"/>
<path d="M687.064 773.071L668.202 773.071L668.202 800.279L687.064 800.279L687.064 773.071Z" fill="#FFD6C4"/>
<path d="M649.835 816.746C647.853 816.746 646.088 816.7 644.755 816.572C639.746 816.104 634.963 812.341 632.558 810.143C631.477 809.154 631.135 807.578 631.693 806.223C632.099 805.252 632.9 804.52 633.9 804.236L647.142 800.389L668.58 785.682L668.824 786.121C668.914 786.286 671.021 790.142 671.724 792.742C671.994 793.732 671.922 794.556 671.517 795.197C671.238 795.636 670.841 795.893 670.526 796.039C670.913 796.451 672.129 797.294 675.877 797.898C681.344 798.778 682.497 793.017 682.542 792.779L682.578 792.587L682.741 792.477C685.344 790.773 686.947 789.995 687.497 790.16C687.839 790.261 688.416 790.444 689.974 806.131C690.127 806.626 691.217 810.234 690.478 813.687C689.677 817.442 673.535 816.15 670.301 815.857C670.211 815.866 658.122 816.746 649.844 816.746L649.835 816.746Z" fill="#2F2E43"/>
<path d="M740.775 751.694L724.77 761.842L738.932 784.929L754.937 774.781L740.775 751.694Z" fill="#FFD6C4"/>
<path d="M719.52 813.018C717.304 813.018 715.268 812.744 713.818 812.487C712.394 812.231 711.277 811.077 711.043 809.63C710.881 808.586 711.178 807.533 711.881 806.754L721.114 796.369L731.653 772.357L732.085 772.595C732.248 772.686 736.04 774.82 737.995 776.652C738.742 777.348 739.112 778.09 739.094 778.85C739.085 779.381 738.886 779.802 738.688 780.104C739.229 780.251 740.697 780.306 744.192 778.804C749.29 776.615 747.273 771.102 747.183 770.873L747.111 770.69L747.192 770.516C748.516 767.668 749.462 766.148 750.02 765.992C750.371 765.891 750.948 765.736 760.433 778.218C760.82 778.548 763.622 781.029 764.793 784.354C766.063 787.971 751.695 795.563 748.804 797.047C748.714 797.12 733.68 808.229 727.5 811.388C725.05 812.643 722.15 813.027 719.511 813.027L719.52 813.018Z" fill="#2F2E43"/>
<path d="M700.954 545.541L648.142 545.541L643.349 595.488L664.32 780.04L691.28 780.04L680.498 673.45L724.231 769.682L748.191 752.63L714.043 662.79C714.043 662.79 726.239 584.526 716.655 565.029C707.071 545.541 700.954 545.541 700.954 545.541Z" fill="#2F2E43"/>
<path d="M727.23 548.581L643.349 548.581L668.517 438.337L705.062 438.337L727.23 548.581Z" fill="#0066FF"/>
<path d="M734.779 607.165C736.121 613.869 733.662 619.995 729.302 620.847C724.942 621.699 720.321 616.946 718.988 610.242C718.421 607.568 718.511 604.802 719.249 602.165L702.648 497.077L723.411 493.102L731.428 599.793C733.13 601.954 734.274 604.482 734.779 607.174L734.779 607.165Z" fill="#FFD6C4"/>
<path d="M690.893 438.337L705.062 438.337C715.079 439.885 717.799 445.316 720.078 455.353C723.555 470.665 727.996 491.051 727.113 491.353C725.699 491.829 701.576 503.368 689.28 500.731L690.893 438.337Z" fill="#0066FF"/>
</g>
<defs>
<linearGradient id="paint0_linear_403_445" x1="803.234" y1="-39.2512" x2="456.536" y2="714.881" gradientUnits="userSpaceOnUse">
<stop stop-color="#1BADDE"/>
<stop offset="1" stop-color="#095073" stop-opacity="0"/>
</linearGradient>
<clipPath id="clip0_403_445">
<rect width="677" height="494" fill="white" transform="translate(291 324)"/>
</clipPath>
</defs>
</svg>
