<svg width="836" height="816" viewBox="0 0 836 816" fill="none" xmlns="http://www.w3.org/2000/svg">
<rect width="1254.7" height="884.732" transform="translate(0 956.456) rotate(-65.6914)" fill="#344293"/>
<path d="M503.718 -263L1117.09 22.3846L756.244 798.695C742.509 828.243 707.425 841.054 677.882 827.308L208.667 608.997C158.593 585.699 136.872 526.213 160.151 476.13L503.718 -263Z" fill="url(#paint0_linear_359_21464)" fill-opacity="0.7"/>
<g clip-path="url(#clip0_359_21464)">
<path d="M776.488 482.607L356.127 482.607C352.382 482.602 348.791 481.1 346.143 478.43C343.494 475.76 342.004 472.14 342 468.363L342 302.243C342.004 298.467 343.494 294.847 346.143 292.177C348.791 289.506 352.382 288.004 356.127 288L776.488 288C780.233 288.004 783.824 289.506 786.473 292.177C789.121 294.847 790.611 298.467 790.615 302.243L790.615 468.364C790.611 472.14 789.121 475.76 786.473 478.43C783.824 481.1 780.233 482.602 776.488 482.607Z" fill="#F2F2F2"/>
<path d="M678.45 473.523L422.853 473.523C403.806 473.501 385.546 465.863 372.078 452.285C358.61 438.706 351.034 420.296 351.012 401.093L351.012 369.522C351.034 350.319 358.61 331.909 372.078 318.33C385.546 304.751 403.806 297.113 422.853 297.092L709.765 297.092C728.811 297.113 747.072 304.751 760.54 318.33C774.008 331.909 781.584 350.319 781.605 369.522C781.574 397.095 770.696 423.53 751.358 443.027C732.019 462.524 705.799 473.491 678.45 473.523Z" fill="white"/>
<path d="M612.517 344.646L443.564 344.646C442.598 344.646 441.671 344.259 440.988 343.57C440.304 342.881 439.92 341.947 439.92 340.973C439.92 339.999 440.304 339.064 440.988 338.375C441.671 337.687 442.598 337.3 443.564 337.3L612.517 337.3C613.483 337.3 614.41 337.687 615.093 338.375C615.776 339.064 616.16 339.999 616.16 340.973C616.16 341.947 615.776 342.881 615.093 343.57C614.41 344.259 613.483 344.646 612.517 344.646Z" fill="#E6E6E6"/>
<path d="M698.044 383.838L443.564 383.838C442.598 383.838 441.671 383.451 440.988 382.763C440.304 382.074 439.92 381.139 439.92 380.165C439.92 379.191 440.304 378.256 440.988 377.568C441.671 376.879 442.598 376.492 443.564 376.492L698.044 376.492C699.01 376.492 699.937 376.879 700.62 377.568C701.303 378.256 701.687 379.191 701.687 380.165C701.687 381.139 701.303 382.074 700.62 382.763C699.937 383.451 699.01 383.838 698.044 383.838Z" fill="#E6E6E6"/>
<path d="M698.044 423.031L443.564 423.031C442.598 423.031 441.671 422.644 440.988 421.955C440.304 421.266 439.92 420.332 439.92 419.357C439.92 418.383 440.304 417.449 440.988 416.76C441.671 416.071 442.598 415.684 443.564 415.684L698.044 415.684C699.01 415.684 699.937 416.071 700.62 416.76C701.303 417.449 701.687 418.383 701.687 419.357C701.687 420.332 701.303 421.266 700.62 421.955C699.937 422.644 699.01 423.031 698.044 423.031Z" fill="#E6E6E6"/>
<path d="M698.044 423.031L443.564 423.031C442.598 423.031 441.671 422.644 440.988 421.955C440.304 421.266 439.92 420.332 439.92 419.357C439.92 418.383 440.304 417.449 440.988 416.76C441.671 416.071 442.598 415.684 443.564 415.684L698.044 415.684C699.01 415.684 699.937 416.071 700.62 416.76C701.303 417.449 701.687 418.383 701.687 419.357C701.687 420.332 701.303 421.266 700.62 421.955C699.937 422.644 699.01 423.031 698.044 423.031Z" fill="#E6E6E6"/>
<path d="M594.688 388.337C594.728 389.443 595.009 390.527 595.51 391.513C596.011 392.498 596.72 393.36 597.588 394.039C598.455 394.719 599.46 395.198 600.531 395.443C601.602 395.688 602.713 395.694 603.786 395.459L617.681 418.441L623.595 405.789L609.493 385.905C608.983 384.113 607.838 382.572 606.277 381.575C604.715 380.577 602.844 380.191 601.019 380.491C599.194 380.791 597.542 381.755 596.375 383.201C595.208 384.647 594.608 386.474 594.688 388.337Z" fill="#FFD6C4"/>
<path d="M698.959 454.2L651.075 428.014L635.972 413.727C635.972 413.727 629.406 411.955 631.822 409.803C634.239 407.65 627.352 405.574 627.352 405.574L619.244 397.905L607.723 406.124L611.057 411.335C611.057 411.335 610.828 419.962 615.515 418.302C620.203 416.642 619.031 423.797 619.031 423.797L647.01 467.523L698.959 454.2Z" fill="#2D60FF"/>
<path d="M557.611 429.529C583.442 429.529 604.382 408.417 604.382 382.374C604.382 356.331 583.442 335.219 557.611 335.219C531.779 335.219 510.839 356.331 510.839 382.374C510.839 408.417 531.779 429.529 557.611 429.529Z" fill="#0066FF"/>
<path d="M699.108 797.666L689.382 797.666L684.754 759.848L699.108 759.848L699.108 797.666Z" fill="#FFD6C4"/>
<path d="M704.241 814.654L697.266 814.654L696.022 808.016L692.833 814.654L674.336 814.654C673.45 814.654 672.586 814.369 671.872 813.839C671.158 813.309 670.63 812.563 670.366 811.71C670.102 810.856 670.116 809.94 670.405 809.095C670.694 808.25 671.244 807.52 671.973 807.013L686.745 796.727L686.745 790.016L702.282 790.951L704.241 814.654Z" fill="#2F2E41"/>
<path d="M621.327 797.666L611.602 797.666L606.974 759.848L621.327 759.848L621.327 797.666Z" fill="#FFD6C4"/>
<path d="M626.46 814.654L619.486 814.654L618.241 808.016L615.053 814.654L596.556 814.654C595.669 814.654 594.806 814.369 594.091 813.839C593.377 813.309 592.85 812.563 592.586 811.71C592.322 810.856 592.336 809.94 592.625 809.095C592.914 808.25 593.463 807.52 594.193 807.013L608.964 796.727L608.964 790.016L624.501 790.951L626.46 814.654Z" fill="#2F2E41"/>
<path d="M688.789 511.651L639.704 511.651L639.704 567.99L688.789 567.99L688.789 511.651Z" fill="#FFD6C4"/>
<path d="M640.837 539.439L632.53 549.337L618.182 579.791L582.029 666.515L574.383 684.856L580.558 717.279C580.558 717.279 581.557 740.121 581.557 743.86C581.557 751.473 587.873 755.692 587.873 755.692L592.507 780.024L637.438 778.12C637.438 778.12 635.871 751.3 626.46 744.535C617.049 737.769 612.724 702.511 612.724 702.511L607.61 686.867L657.45 627.303L657.772 648.124L657.927 658.201C657.927 658.201 650.629 723.748 659.137 736.469C667.645 749.189 659.31 747.693 659.31 747.693L659.715 773.933L712.954 774.314L701.208 698.767C701.208 698.767 695.245 694.02 698.435 689.248C701.626 684.475 695.343 678.63 695.343 678.63L698.161 619.653C698.161 619.653 695.041 609.466 698.711 608.142C702.381 606.818 699.193 598.058 699.193 598.058L699.738 586.643L688.789 551.24L640.837 539.439Z" fill="#2F2E41"/>
<path d="M689.544 511.651L694.83 495.662L698.606 490.333L700.116 475.106C700.116 433.994 691.02 440.84 691.02 440.84L685.768 426.38L661.603 425.619L646.123 440.465L633.285 445.033L628.258 471.368L637.439 499.469L639.704 514.696C635.382 522.739 635.748 518.935 639.326 524.974L681.992 536.775C697.095 542.104 697.095 528.4 694.067 524.974C691.039 521.548 689.544 511.651 689.544 511.651Z" fill="#2D60FF"/>
<path d="M670.564 420.508C682.936 420.508 692.966 410.396 692.966 397.923C692.966 385.449 682.936 375.337 670.564 375.337C658.192 375.337 648.162 385.449 648.162 397.923C648.162 410.396 658.192 420.508 670.564 420.508Z" fill="#FFD6C4"/>
<path d="M700.471 428.07C700.682 428.429 700.81 428.832 700.845 429.248C700.881 429.664 700.822 430.082 700.675 430.472C700.528 430.862 700.295 431.214 699.994 431.5C699.693 431.787 699.332 432.002 698.938 432.128C695.932 433.133 694.082 436.064 691.923 438.409C689.77 440.747 686.304 442.688 683.555 441.097C680.814 439.513 680.626 435.471 678.33 433.278C676.095 431.146 672.379 431.405 669.751 433.027L669.673 433.075C669.219 433.374 668.689 433.531 668.147 433.529C667.606 433.526 667.077 433.364 666.626 433.061C666.175 432.759 665.822 432.33 665.61 431.828C665.399 431.325 665.338 430.771 665.435 430.234C666.356 425.297 667.276 420.36 668.196 415.424C665.779 421.295 662.27 426.644 657.858 431.184C656.642 432.598 655.102 433.691 653.372 434.367C651.801 434.869 650.276 433.232 648.751 433.529C652.541 430.187 665.288 408.763 663.008 394.442C660.327 394.746 657.646 395.051 654.966 395.355C654.675 394.076 654.055 392.897 653.168 391.937C653.277 393.182 653.12 394.436 652.708 395.614C651.59 395.744 650.465 395.866 649.347 395.995C647.792 396.17 646.1 396.322 644.763 395.5C642.536 394.13 642.468 390.886 643.102 388.328C644.96 380.89 650.593 374.67 657.488 371.411C664.382 368.16 666.421 375.401 673.686 373.086C688.033 368.518 699.028 376.33 702.902 390.826C706.157 402.984 703.794 415.889 700.471 428.07Z" fill="#2F2E41"/>
<path d="M762.489 815.146L735.059 815.146L734.941 814.93C734.59 814.289 734.251 813.609 733.935 812.911C731.109 806.812 729.915 799.837 728.861 793.683L728.068 789.045C727.972 788.483 728.044 787.905 728.276 787.385C728.507 786.865 728.888 786.426 729.368 786.125C729.848 785.824 730.406 785.675 730.972 785.696C731.537 785.717 732.083 785.907 732.54 786.243C736.708 789.301 740.879 792.356 745.051 795.409C746.63 796.567 748.434 797.909 750.162 799.358C750.329 798.542 750.503 797.723 750.677 796.916C750.798 796.358 751.08 795.85 751.489 795.455C751.897 795.061 752.413 794.798 752.971 794.701C753.528 794.603 754.102 794.676 754.618 794.91C755.135 795.143 755.57 795.526 755.869 796.011L759.078 801.209C761.419 805.006 763.485 808.747 763.064 812.782C763.066 812.831 763.062 812.88 763.053 812.928C762.969 813.591 762.813 814.242 762.587 814.871L762.489 815.146Z" fill="#F0F0F0"/>
<path d="M553.359 445.841L524.687 421.429C523.707 420.593 523.096 419.399 522.989 418.109C522.881 416.819 523.285 415.539 524.112 414.549L529.389 408.249C530.219 407.261 531.403 406.645 532.682 406.536C533.962 406.427 535.232 406.835 536.214 407.669L564.885 432.08C565.865 432.917 566.476 434.111 566.584 435.401C566.692 436.69 566.288 437.971 565.46 438.961L560.183 445.261C559.354 446.249 558.17 446.865 556.89 446.974C555.611 447.082 554.341 446.675 553.359 445.841Z" fill="#3F3D56"/>
<path d="M526.192 415.057C525.746 415.59 525.528 416.28 525.587 416.975C525.645 417.67 525.974 418.314 526.502 418.764L555.173 443.176C555.703 443.625 556.387 443.845 557.076 443.786C557.766 443.728 558.404 443.396 558.851 442.863L564.128 436.563C564.574 436.03 564.792 435.34 564.734 434.645C564.675 433.95 564.346 433.306 563.818 432.856L535.147 408.444C534.617 407.995 533.933 407.775 533.244 407.834C532.554 407.892 531.916 408.224 531.469 408.757L526.192 415.057Z" fill="white"/>
<path d="M543.024 424.546C542.924 424.687 542.794 424.802 542.643 424.883C542.491 424.963 542.323 425.007 542.152 425.011L537.647 425.115C537.503 425.119 537.359 425.093 537.224 425.041C537.089 424.988 536.966 424.909 536.861 424.808C536.756 424.707 536.672 424.587 536.614 424.453C536.555 424.32 536.523 424.176 536.52 424.03C536.517 423.884 536.542 423.739 536.594 423.603C536.647 423.467 536.725 423.342 536.825 423.237C536.925 423.131 537.045 423.047 537.177 422.988C537.31 422.929 537.452 422.897 537.597 422.893L540.544 422.825L537.642 415.104C537.539 414.828 537.549 414.523 537.669 414.255C537.789 413.987 538.01 413.778 538.283 413.673C538.556 413.569 538.859 413.578 539.125 413.699C539.391 413.819 539.599 414.041 539.703 414.316L543.158 423.506C543.22 423.672 543.242 423.851 543.222 424.028C543.202 424.205 543.14 424.374 543.042 424.521L543.024 424.546Z" fill="#6C63FF"/>
<path d="M543.602 426.487C544.688 426.648 545.727 427.047 546.644 427.656C547.561 428.266 548.334 429.07 548.909 430.013C549.485 430.957 549.848 432.015 549.973 433.115C550.099 434.215 549.983 435.33 549.635 436.38L570.784 452.804L557.666 457.356L539.594 441.061C537.883 440.355 536.488 439.04 535.674 437.366C534.86 435.692 534.684 433.776 535.178 431.979C535.672 430.183 536.802 428.632 538.355 427.619C539.907 426.607 541.774 426.204 543.602 426.487Z" fill="#FFD6C4"/>
<path d="M653.706 434.608L599.559 468.173C599.559 468.173 577.727 460.029 581.994 456.259C586.26 452.489 572.678 449.94 572.678 449.94L557.673 439.762L548.966 449.964C548.966 449.964 550.553 466.535 553.252 463.666C555.952 460.797 559.986 468.635 559.986 468.635C559.986 468.635 561.179 477.387 568.863 475.184C576.547 472.982 597.166 496.068 597.166 496.068L663.805 471.011L653.706 434.608Z" fill="#2D60FF"/>
<path d="M555.966 401.289C555.338 401.289 554.719 401.142 554.158 400.859C553.596 400.576 553.108 400.165 552.731 399.658L542.814 386.327C542.496 385.899 542.264 385.412 542.132 384.893C542.001 384.374 541.971 383.835 542.047 383.305C542.122 382.775 542.3 382.265 542.57 381.804C542.841 381.344 543.198 380.941 543.623 380.62C544.481 379.971 545.56 379.693 546.621 379.846C547.147 379.921 547.653 380.101 548.109 380.374C548.566 380.646 548.965 381.007 549.284 381.436L555.772 390.156L572.436 364.956C573.03 364.057 573.955 363.432 575.007 363.22C576.059 363.008 577.151 363.226 578.043 363.826C578.935 364.426 579.555 365.358 579.765 366.418C579.975 367.479 579.759 368.58 579.164 369.479L559.331 399.474C558.972 400.016 558.489 400.464 557.923 400.78C557.358 401.096 556.725 401.27 556.078 401.288C556.041 401.289 556.003 401.289 555.966 401.289Z" fill="white"/>
</g>
<defs>
<linearGradient id="paint0_linear_359_21464" x1="810.405" y1="-120.308" x2="424.384" y2="709.364" gradientUnits="userSpaceOnUse">
<stop stop-color="#1BADDE"/>
<stop offset="1" stop-color="#095073" stop-opacity="0"/>
</linearGradient>
<clipPath id="clip0_359_21464">
<rect width="449" height="528" fill="white" transform="translate(342 288)"/>
</clipPath>
</defs>
</svg>
