<svg width="836" height="816" viewBox="0 0 836 816" fill="none" xmlns="http://www.w3.org/2000/svg">
<rect width="1254.7" height="884.732" transform="translate(0 956.456) rotate(-65.6914)" fill="#344293"/>
<path d="M503.718 -263L1117.09 22.3846L756.244 798.695C742.509 828.243 707.425 841.054 677.882 827.308L208.667 608.997C158.593 585.699 136.872 526.213 160.151 476.13L503.718 -263Z" fill="url(#paint0_linear_359_21464)" fill-opacity="0.7"/>
<g clip-path="url(#clip0_359_21464)">
<path d="M460.437 515.346C479.492 475.886 515.838 445.587 554.313 448.506C525.933 484.84 509.383 531.821 507.593 581.136C506.962 600.158 507.941 621.393 497.213 635.636C490.538 644.499 480.335 648.791 470.303 649.691C460.27 650.592 450.24 648.458 440.341 646.333L437.94 647.201C437.026 601.823 441.383 554.806 460.437 515.346Z" fill="#F0F0F0"/>
<path d="M554.371 449.456C525.919 465.581 501.658 492.511 486.765 525.355C483.545 532.456 480.804 539.989 479.608 547.954C478.412 555.922 479.247 563.507 481.559 571.075C483.673 577.994 486.515 584.783 487.163 592.187C487.846 599.99 485.407 607.286 481.017 613.077C475.646 620.162 468.432 624.553 461.251 628.557C453.278 633.004 444.937 637.474 439.29 645.773C438.605 646.779 437.32 645.47 438.003 644.466C447.828 630.027 464.647 627.313 476.309 615.682C481.751 610.254 485.837 602.863 485.579 594.203C485.354 586.63 482.427 579.626 480.236 572.642C477.935 565.309 476.788 557.936 477.613 550.118C478.457 542.12 480.954 534.445 484.005 527.279C490.887 511.117 500.305 496.279 511.094 483.452C523.494 468.708 537.944 456.57 553.82 447.563C554.803 447.006 555.347 448.903 554.371 449.456Z" fill="white"/>
<path d="M491.127 514.379C486.766 510.624 483.68 505.166 482.42 498.98C481.161 492.794 481.811 486.282 484.253 480.608C484.751 479.462 486.287 480.318 485.789 481.466C483.506 486.745 482.901 492.811 484.084 498.568C485.267 504.326 488.158 509.396 492.238 512.864C493.123 513.619 492.008 515.129 491.127 514.379Z" fill="white"/>
<path d="M480.095 567.733C491.025 565.853 500.951 559.192 507.894 549.079C508.582 548.076 509.867 549.385 509.181 550.386C501.939 560.895 491.597 567.801 480.219 569.729C479.135 569.911 479.016 567.915 480.095 567.733Z" fill="white"/>
<path d="M524.333 471.17C525.764 473.037 527.566 474.456 529.577 475.3C531.589 476.145 533.747 476.388 535.858 476.007C536.94 475.808 537.058 477.805 535.983 478.002C533.649 478.41 531.265 478.138 529.041 477.211C526.817 476.284 524.819 474.73 523.223 472.684C523.059 472.506 522.958 472.261 522.942 471.999C522.925 471.737 522.994 471.478 523.135 471.274C523.283 471.074 523.491 470.951 523.716 470.932C523.94 470.912 524.162 470.998 524.333 471.17Z" fill="white"/>
<path d="M630.868 572.988C630.196 573.135 629.523 573.282 628.844 573.444C619.81 575.473 610.93 578.363 602.293 582.084C601.622 582.36 600.945 582.651 600.281 582.948C579.554 592.176 560.462 605.854 543.976 623.287C537.422 630.23 531.325 637.752 525.74 645.784C518.027 656.879 510.413 669.63 500.334 676.864C499.29 677.632 498.206 678.324 497.089 678.935L439.026 650.582C438.921 650.439 438.811 650.312 438.706 650.17L436.343 649.162C436.607 648.724 436.888 648.277 437.152 647.839C437.304 647.584 437.468 647.335 437.62 647.081C437.726 646.913 437.832 646.745 437.919 646.587C437.954 646.531 437.989 646.475 438.019 646.434C438.106 646.276 438.201 646.139 438.282 645.996C439.848 643.489 441.433 640.991 443.034 638.501C443.04 638.486 443.04 638.486 443.058 638.476C455.304 619.542 469 601.645 484.568 586.764C485.036 586.316 485.51 585.853 486.005 585.418C493.054 578.757 500.553 572.784 508.429 567.561C512.749 564.717 517.189 562.133 521.731 559.817C533.477 553.861 545.945 550.118 558.68 548.723C584.065 545.948 609.923 552.762 629.393 571.537C629.89 572.017 630.376 572.492 630.868 572.988Z" fill="#F0F0F0"/>
<path d="M630.432 573.792C599.468 566.5 566.325 570.807 537.637 586.475C531.435 589.862 525.393 593.934 520.365 599.445C515.335 604.96 512.123 611.608 510.098 619.29C508.247 626.312 507.045 633.748 503.776 640.118C500.331 646.833 494.652 650.93 488.185 652.442C480.273 654.292 472.268 652.684 464.487 650.792C455.846 648.691 446.9 646.348 438.147 648.971C437.086 649.289 436.729 647.333 437.788 647.016C453.018 642.451 467.834 652.205 483.094 651.184C490.215 650.708 497.257 647.703 501.48 640.605C505.173 634.399 506.419 626.733 508.241 619.603C510.154 612.117 513.008 605.417 517.665 599.759C522.429 593.972 528.348 589.614 534.45 586.055C548.21 578.028 563.318 572.856 578.492 570.262C595.933 567.279 613.678 567.829 630.961 571.891C632.03 572.143 631.495 574.043 630.432 573.792Z" fill="white"/>
<path d="M546.734 580.802C545.171 574.713 545.498 568.168 547.656 562.336C549.815 556.504 553.664 551.765 558.516 548.966C559.499 548.404 560.288 550.176 559.303 550.739C554.781 553.336 551.196 557.751 549.195 563.186C547.195 568.622 546.911 574.72 548.395 580.38C548.716 581.611 547.053 582.026 546.734 580.802Z" fill="white"/>
<path d="M510.639 615.583C520.327 621.829 531.659 623.547 542.375 620.393C543.436 620.08 543.794 622.035 542.733 622.349C531.577 625.606 519.787 623.79 509.718 617.265C508.758 616.642 509.684 614.964 510.639 615.583Z" fill="white"/>
<path d="M595.344 569.839C595.531 572.343 596.244 574.754 597.419 576.854C598.593 578.954 600.192 580.677 602.072 581.87C603.038 582.478 602.111 584.155 601.151 583.551C599.079 582.222 597.315 580.316 596.013 577.999C594.712 575.682 593.911 573.026 593.683 570.261C593.643 570.002 593.688 569.736 593.809 569.515C593.93 569.294 594.118 569.136 594.334 569.072C594.554 569.018 594.784 569.067 594.973 569.211C595.162 569.355 595.295 569.58 595.344 569.839Z" fill="white"/>
<path d="M520.262 619.765C512.13 573.478 501.966 558.046 501.966 558.046L498.082 554.501L493.413 550.23L493.435 549.681L492.328 549.238L492.067 549L491.641 548.615L491.573 548.702L491.428 548.878L470.297 540.422L443.488 529.702L431.074 510.706C429.052 507.612 426.449 505.111 423.469 503.4C420.489 501.689 417.213 500.813 413.898 500.842L374.251 501.188C368.891 501.234 363.739 503.64 359.808 507.932L333.749 536.388L293.145 559.219L293.076 559.138L292.65 559.496L286.376 563.028L286.635 564.615L282.752 567.913C282.752 567.913 272.587 582.273 264.455 625.343C262.387 636.301 261.369 659.81 261.001 688.779C260.983 690.244 261.212 691.699 261.675 693.059C262.139 694.42 262.827 695.658 263.701 696.702C264.575 697.746 265.616 698.575 266.764 699.142C267.912 699.708 269.145 700 270.39 700L487.268 700L514.337 700C515.581 699.999 516.813 699.708 517.96 699.142C519.108 698.577 520.149 697.748 521.022 696.705C521.895 695.663 522.584 694.426 523.048 693.067C523.513 691.708 523.743 690.254 523.726 688.79C523.367 657.268 522.349 631.65 520.262 619.765Z" fill="#0066FF"/>
<path d="M548.088 305.366C539.65 305.366 531.558 309.313 525.592 316.337C519.625 323.361 516.273 332.887 516.273 342.821C516.273 352.755 519.625 362.281 525.592 369.305C531.558 376.33 539.65 380.276 548.088 380.276L785.185 380.276C793.623 380.276 801.715 376.33 807.682 369.305C813.648 362.281 817 352.755 817 342.821C817 332.887 813.648 323.361 807.682 316.337C801.715 309.313 793.623 305.366 785.185 305.366L548.088 305.366Z" fill="#E5E5E5"/>
<path d="M548.088 312.947C541.358 312.947 534.903 316.094 530.144 321.697C525.385 327.299 522.712 334.898 522.712 342.821C522.712 350.744 525.385 358.343 530.144 363.945C534.903 369.548 541.358 372.696 548.088 372.696L785.185 372.696C791.915 372.696 798.37 369.548 803.129 363.945C807.888 358.343 810.561 350.744 810.561 342.821C810.561 334.898 807.888 327.299 803.129 321.697C798.37 316.094 791.915 312.947 785.185 312.947L548.088 312.947Z" fill="white"/>
<path d="M400.3 483.308C428.986 483.308 452.241 455.931 452.241 422.16C452.241 388.389 428.986 361.012 400.3 361.012C371.614 361.012 348.36 388.389 348.36 422.16C348.36 455.931 371.614 483.308 400.3 483.308Z" fill="#FFD6C4"/>
<path d="M387.013 480.314C386.791 479.739 386.57 479.161 386.349 478.582C386.434 478.585 386.518 478.6 386.603 478.602L387.013 480.314Z" fill="#2F2E41"/>
<path d="M346.915 363.793C349.542 361.326 352.613 359.056 355.972 359.183C359.33 359.311 362.736 362.882 362.04 366.752C368.21 353.893 378.029 344.002 389.775 338.817C401.522 333.632 414.444 333.483 426.274 338.397C434.622 341.864 442.808 348.8 444.726 358.974C445.218 361.586 445.324 364.449 446.709 366.57C448.456 369.244 451.797 369.849 454.548 368.908C454.576 368.899 454.603 368.889 454.631 368.88C455.096 368.693 455.597 368.674 456.071 368.827C456.545 368.979 456.969 369.296 457.288 369.735C457.608 370.174 457.808 370.716 457.863 371.291C457.917 371.865 457.825 372.446 457.596 372.958L455.234 378.144C458.212 378.925 461.305 378.848 464.252 377.918C464.741 377.767 465.258 377.798 465.732 378.006C466.206 378.215 466.614 378.591 466.899 379.083C467.184 379.575 467.333 380.159 467.326 380.755C467.318 381.351 467.154 381.929 466.856 382.41C459.067 394.999 446.055 403.128 432.777 403.032C423.34 402.964 413.805 399.135 404.621 401.69C401.067 402.679 397.747 404.591 394.904 407.287C392.06 409.983 389.766 413.395 388.188 417.271C386.61 421.147 385.79 425.39 385.787 429.688C385.784 433.986 386.598 438.231 388.17 442.11C385.349 438.477 379.894 439.337 377.008 442.9C374.122 446.462 373.375 451.779 373.666 456.69C374.11 464.201 376.61 471.279 379.246 478.168C357.151 477.349 336.252 459.102 329.218 434.423C322.154 409.64 329.557 380.094 346.915 363.793Z" fill="#2F2E41"/>
<path opacity="0.2" d="M312.123 605.791L326.691 699.104L335.432 700L312.123 605.791Z" fill="black"/>
<path opacity="0.2" d="M472.594 598.753L458.026 699.036L449.285 700L472.594 598.753Z" fill="black"/>
<path d="M359.341 332.389C356.548 333.762 353.633 332.257 352.411 328.811C351.17 325.312 352.329 321.76 355.167 320.365C358.005 318.969 360.868 320.478 362.129 324.033C363.371 327.535 362.224 330.971 359.341 332.389ZM353.99 313.478L351.769 314.57C351.214 314.839 350.594 314.854 350.03 314.61C349.467 314.367 349.002 313.884 348.726 313.256L348.617 313.003C346.227 307.929 345.953 301.763 347.808 294.684C349.525 288.335 350.239 283.869 348.804 279.824C347.145 275.146 343.602 273.681 339.085 275.804C337.332 276.665 336.775 276.651 335.396 278.262C335.096 278.616 334.739 278.896 334.345 279.084C333.951 279.273 333.529 279.366 333.104 279.358C332.693 279.352 332.288 279.249 331.911 279.055C331.535 278.861 331.196 278.58 330.914 278.228C330.371 277.549 330.067 276.654 330.063 275.722C330.059 274.79 330.355 273.891 330.892 273.206C333.21 270.35 336.005 268.09 339.102 266.57C348.809 261.798 353.695 268.843 355.931 275.147C358.118 281.313 356.888 287.035 354.911 294.444C353.254 300.601 353.351 305.163 355.233 309.7C355.369 310.042 355.444 310.414 355.455 310.792C355.466 311.171 355.411 311.547 355.295 311.9C355.179 312.253 355.004 312.575 354.78 312.846C354.555 313.117 354.287 313.332 353.99 313.478Z" fill="#6C63FF"/>
<path d="M600.46 360.684L553.286 360.684C553.136 360.685 552.988 360.652 552.849 360.585C552.71 360.518 552.584 360.42 552.478 360.296C552.372 360.171 552.287 360.023 552.23 359.861C552.172 359.698 552.142 359.523 552.142 359.346C552.142 359.17 552.172 358.995 552.23 358.832C552.287 358.67 552.372 358.522 552.478 358.397C552.584 358.273 552.71 358.175 552.849 358.108C552.988 358.041 553.136 358.008 553.286 358.009L600.46 358.009C600.76 358.011 601.047 358.153 601.258 358.404C601.47 358.654 601.588 358.993 601.588 359.346C601.588 359.7 601.47 360.039 601.258 360.289C601.047 360.54 600.76 360.682 600.46 360.684Z" fill="#6C63FF"/>
<path d="M660.302 361.13L613.129 361.13C612.979 361.131 612.83 361.097 612.691 361.031C612.553 360.964 612.427 360.866 612.32 360.741C612.214 360.617 612.129 360.469 612.072 360.306C612.014 360.143 611.985 359.969 611.985 359.792C611.985 359.616 612.014 359.441 612.072 359.278C612.129 359.115 612.214 358.968 612.32 358.843C612.427 358.719 612.553 358.621 612.691 358.554C612.83 358.487 612.979 358.453 613.129 358.455L660.302 358.455C660.452 358.453 660.601 358.487 660.739 358.554C660.878 358.621 661.004 358.719 661.111 358.843C661.217 358.968 661.301 359.115 661.359 359.278C661.417 359.441 661.446 359.616 661.446 359.792C661.446 359.969 661.417 360.143 661.359 360.306C661.301 360.469 661.217 360.617 661.111 360.741C661.004 360.866 660.878 360.964 660.739 361.031C660.601 361.097 660.452 361.131 660.302 361.13Z" fill="#6C63FF"/>
<path d="M720.145 361.576L672.971 361.576C672.671 361.574 672.384 361.432 672.173 361.181C671.961 360.93 671.842 360.592 671.842 360.238C671.842 359.885 671.961 359.546 672.173 359.296C672.384 359.045 672.671 358.903 672.971 358.901L720.144 358.901C720.294 358.899 720.443 358.933 720.582 359C720.72 359.067 720.847 359.165 720.953 359.289C721.059 359.414 721.144 359.561 721.201 359.724C721.259 359.887 721.288 360.062 721.288 360.238C721.288 360.415 721.259 360.589 721.201 360.752C721.144 360.915 721.059 361.063 720.953 361.187C720.847 361.312 720.72 361.41 720.582 361.477C720.443 361.543 720.294 361.577 720.145 361.576Z" fill="#6C63FF"/>
<path d="M779.987 362.022L732.813 362.022C732.513 362.019 732.226 361.877 732.015 361.627C731.804 361.376 731.685 361.037 731.685 360.684C731.685 360.331 731.804 359.992 732.015 359.741C732.226 359.491 732.513 359.349 732.813 359.346L779.987 359.346C780.287 359.349 780.574 359.491 780.785 359.741C780.997 359.992 781.115 360.331 781.115 360.684C781.115 361.037 780.997 361.376 780.785 361.627C780.574 361.877 780.287 362.019 779.987 362.022Z" fill="#6C63FF"/>
<path d="M576.769 348.373C581.611 348.373 585.537 343.752 585.537 338.052C585.537 332.351 581.611 327.73 576.769 327.73C571.927 327.73 568.002 332.351 568.002 338.052C568.002 343.752 571.927 348.373 576.769 348.373Z" fill="#6C63FF"/>
<path d="M636.973 348.373C641.815 348.373 645.741 343.752 645.741 338.052C645.741 332.351 641.815 327.73 636.973 327.73C632.131 327.73 628.206 332.351 628.206 338.052C628.206 343.752 632.131 348.373 636.973 348.373Z" fill="#6C63FF"/>
<path d="M697.177 348.373C702.019 348.373 705.944 343.752 705.944 338.052C705.944 332.351 702.019 327.73 697.177 327.73C692.335 327.73 688.409 332.351 688.409 338.052C688.409 343.752 692.335 348.373 697.177 348.373Z" fill="#6C63FF"/>
<path d="M757.381 348.373C762.223 348.373 766.148 343.752 766.148 338.052C766.148 332.351 762.223 327.73 757.381 327.73C752.538 327.73 748.613 332.351 748.613 338.052C748.613 343.752 752.538 348.373 757.381 348.373Z" fill="#6C63FF"/>
</g>
<defs>
<linearGradient id="paint0_linear_359_21464" x1="810.405" y1="-120.308" x2="424.384" y2="709.364" gradientUnits="userSpaceOnUse">
<stop stop-color="#1BADDE"/>
<stop offset="1" stop-color="#095073" stop-opacity="0"/>
</linearGradient>
<clipPath id="clip0_359_21464">
<rect width="556" height="435" fill="white" transform="translate(261 265)"/>
</clipPath>
</defs>
</svg>
