<svg width="551" height="421" viewBox="0 0 551 421" fill="none" xmlns="http://www.w3.org/2000/svg">
<g clip-path="url(#clip0_253_398)">
<path d="M109.783 421C170.415 421 219.566 416.9 219.566 411.843C219.566 406.786 170.415 402.687 109.783 402.687C49.1516 402.687 4.30251e-08 406.786 9.60992e-08 411.843C1.49173e-07 416.9 49.1516 421 109.783 421Z" fill="#E6E6E6"/>
<path d="M83.9161 93.4125C103.022 84.4883 126.818 90.1426 150.058 94.0668C150.274 89.3145 152.895 83.5307 150.149 80.2153C146.813 76.1873 147.12 71.955 149.128 67.6983C154.261 56.8134 146.907 45.2312 139.481 35.6008C137.807 33.435 135.692 31.7334 133.307 30.634C130.921 29.5346 128.334 29.0686 125.754 29.2737L111.998 30.3528C108.651 30.6153 105.456 31.9943 102.842 34.3051C100.228 36.616 98.3187 39.7485 97.3699 43.2835C94.0853 48.1893 92.3273 53.0816 93.4341 57.9483C88.5143 61.6406 87.6877 66.0975 89.8985 71.1219C91.7732 74.2855 91.7532 77.3649 89.8132 80.3591C87.2655 84.1765 85.3141 88.433 84.0391 92.9542L83.9161 93.4125Z" fill="#2F2E41"/>
<path d="M537.943 363.948L148.548 363.948C145.086 363.948 141.765 362.437 139.316 359.748C136.867 357.059 135.492 353.412 135.492 349.609C276.647 331.593 415.15 331.593 551 349.609C551 353.412 549.624 357.059 547.176 359.748C544.727 362.437 541.406 363.948 537.943 363.948Z" fill="#2F2E41"/>
<path d="M551 350.453L135.492 349.609L183.648 260.625L183.878 260.204L183.878 64.0936C183.878 61.7132 184.305 59.3561 185.134 57.1569C185.964 54.9577 187.179 52.9595 188.712 51.2763C190.245 49.5932 192.064 48.2581 194.067 47.3472C196.069 46.4364 198.216 45.9677 200.383 45.9679L483.804 45.9679C485.972 45.9677 488.118 46.4364 490.121 47.3472C492.123 48.2581 493.943 49.5932 495.476 51.2763C497.008 52.9595 498.224 54.9577 499.053 57.1569C499.883 59.3561 500.31 61.7132 500.31 64.0936L500.31 261.553L551 350.453Z" fill="#3F3D56"/>
<path d="M200.007 58.6196C198.582 58.6214 197.215 59.244 196.207 60.3509C195.199 61.4577 194.632 62.9584 194.631 64.5238L194.631 243.335C194.632 244.9 195.199 246.401 196.207 247.508C197.215 248.614 198.582 249.237 200.007 249.239L486.485 249.239C487.91 249.237 489.277 248.614 490.285 247.507C491.292 246.401 491.859 244.9 491.861 243.335L491.861 64.5238C491.859 62.9584 491.293 61.4578 490.285 60.3509C489.277 59.2441 487.91 58.6215 486.485 58.6196L200.007 58.6196Z" fill="white"/>
<path d="M201.207 272.855C200.767 272.856 200.336 272.995 199.965 273.256C199.594 273.517 199.299 273.889 199.114 274.328L184.276 309.753C184.114 310.138 184.043 310.562 184.07 310.986C184.097 311.409 184.22 311.818 184.429 312.176C184.637 312.533 184.924 312.827 185.263 313.03C185.602 313.234 185.982 313.341 186.369 313.341L498.411 313.341C498.804 313.341 499.19 313.231 499.533 313.021C499.876 312.81 500.165 312.508 500.371 312.141C500.578 311.774 500.695 311.355 500.713 310.924C500.73 310.493 500.647 310.065 500.472 309.679L484.343 274.254C484.152 273.833 483.859 273.479 483.495 273.231C483.13 272.984 482.711 272.854 482.282 272.855L201.207 272.855Z" fill="#2F2E41"/>
<path d="M342.094 55.6676C344.003 55.6676 345.55 53.9683 345.55 51.872C345.55 49.7758 344.003 48.0765 342.094 48.0765C340.185 48.0765 338.638 49.7758 338.638 51.872C338.638 53.9683 340.185 55.6676 342.094 55.6676Z" fill="white"/>
<path d="M311.423 320.088C310.916 320.089 310.424 320.273 310.022 320.611C309.62 320.949 309.33 321.424 309.198 321.961L305.476 337.143C305.384 337.518 305.372 337.911 305.44 338.292C305.509 338.673 305.657 339.032 305.872 339.34C306.087 339.648 306.364 339.898 306.681 340.07C306.998 340.242 307.347 340.331 307.701 340.331L378.486 340.331C378.853 340.331 379.215 340.235 379.541 340.05C379.868 339.865 380.149 339.597 380.362 339.268C380.575 338.94 380.714 338.56 380.766 338.161C380.818 337.761 380.783 337.354 380.662 336.973L375.877 321.791C375.72 321.294 375.426 320.863 375.036 320.558C374.646 320.253 374.179 320.089 373.7 320.088L311.423 320.088Z" fill="#2F2E41"/>
<path d="M500.309 257.252L500.309 260.625L183.648 260.625L183.886 260.204L183.886 257.252L500.309 257.252Z" fill="#2F2E41"/>
<path d="M491.477 118.083C521.169 118.083 545.24 91.649 545.24 59.0414C545.24 26.4337 521.169 -8.75863e-07 491.477 -5.64241e-07C461.785 -2.52619e-07 437.714 26.4337 437.714 59.0414C437.714 91.649 461.785 118.083 491.477 118.083Z" fill="#0066FF"/>
<path d="M513.75 84.7666L469.204 84.7666C468.39 84.7657 467.609 84.4099 467.033 83.7774C466.457 83.1449 466.133 82.2873 466.132 81.3928L466.132 51.8721C466.133 50.9776 466.457 50.12 467.033 49.4875C467.609 48.855 468.39 48.4992 469.204 48.4983L513.75 48.4983C514.565 48.4992 515.346 48.855 515.922 49.4875C516.498 50.12 516.822 50.9776 516.822 51.8721L516.822 81.3927C516.822 82.2873 516.498 83.1449 515.922 83.7774C515.346 84.4099 514.565 84.7657 513.75 84.7666ZM469.204 51.8721L469.204 81.3928L513.753 81.3928L513.75 51.8721L469.204 51.8721Z" fill="white"/>
<path d="M505.302 51.8721L477.652 51.8721L477.652 38.3769C477.652 28.6023 483.467 21.5079 491.477 21.5079C499.488 21.5079 505.302 28.6023 505.302 38.3769L505.302 51.8721ZM480.725 48.4983L502.23 48.4983L502.23 38.3769C502.23 30.4312 497.808 24.8817 491.477 24.8817C485.146 24.8817 480.725 30.4313 480.725 38.3769L480.725 48.4983Z" fill="white"/>
<path d="M491.477 69.1627C493.174 69.1627 494.549 67.6522 494.549 65.789C494.549 63.9257 493.174 62.4152 491.477 62.4152C489.78 62.4152 488.405 63.9257 488.405 65.789C488.405 67.6522 489.78 69.1627 491.477 69.1627Z" fill="white"/>
<path d="M453.946 188.588L232.546 188.588C231.459 188.587 230.417 188.112 229.648 187.268C228.879 186.424 228.447 185.279 228.446 184.085L228.446 123.773C228.447 122.579 228.879 121.435 229.648 120.591C230.417 119.747 231.459 119.272 232.546 119.27L453.946 119.27C455.033 119.272 456.075 119.747 456.844 120.591C457.612 121.435 458.045 122.579 458.046 123.773L458.046 184.085C458.045 185.279 457.612 186.424 456.844 187.268C456.075 188.112 455.033 188.587 453.946 188.588ZM232.546 121.071C231.893 121.072 231.268 121.357 230.807 121.864C230.346 122.37 230.086 123.057 230.086 123.773L230.086 184.085C230.086 184.802 230.346 185.488 230.807 185.995C231.268 186.501 231.893 186.786 232.546 186.787L453.946 186.787C454.598 186.786 455.224 186.501 455.685 185.995C456.146 185.488 456.405 184.802 456.406 184.085L456.406 123.773C456.405 123.057 456.146 122.37 455.685 121.864C455.224 121.357 454.598 121.072 453.946 121.071L232.546 121.071Z" fill="#E6E6E6"/>
<path d="M266.947 169.956C276.171 169.956 283.648 161.744 283.648 151.615C283.648 141.486 276.171 133.274 266.947 133.274C257.723 133.274 250.245 141.486 250.245 151.615C250.245 161.744 257.723 169.956 266.947 169.956Z" fill="#E6E6E6"/>
<path d="M305.519 139.388C305.153 139.387 304.79 139.466 304.452 139.619C304.114 139.772 303.807 139.997 303.548 140.281C303.289 140.565 303.083 140.902 302.943 141.274C302.803 141.645 302.731 142.043 302.731 142.445C302.731 142.846 302.803 143.244 302.943 143.615C303.083 143.987 303.289 144.324 303.548 144.608C303.807 144.892 304.114 145.117 304.452 145.27C304.79 145.423 305.153 145.502 305.519 145.501L436.743 145.501C437.481 145.501 438.189 145.179 438.711 144.606C439.233 144.033 439.526 143.255 439.526 142.445C439.526 141.634 439.233 140.856 438.711 140.283C438.189 139.71 437.481 139.388 436.743 139.388L305.519 139.388Z" fill="#E6E6E6"/>
<path d="M305.519 157.729C304.781 157.729 304.073 158.051 303.551 158.624C303.028 159.197 302.735 159.975 302.735 160.786C302.735 161.596 303.028 162.374 303.551 162.947C304.073 163.52 304.781 163.842 305.519 163.842L361.985 163.842C362.723 163.842 363.431 163.52 363.953 162.947C364.475 162.374 364.768 161.596 364.768 160.786C364.768 159.975 364.475 159.197 363.953 158.624C363.431 158.051 362.723 157.729 361.985 157.729L305.519 157.729Z" fill="#E6E6E6"/>
<path d="M183.103 158.965L142.175 182.861L141.657 162.948C155.016 160.499 167.725 156.235 179.476 149.293L183.757 137.68C184.223 136.414 184.981 135.304 185.957 134.457C186.932 133.61 188.091 133.057 189.32 132.851C190.549 132.645 191.805 132.793 192.966 133.281C194.127 133.77 195.153 134.581 195.942 135.636C197.096 137.18 197.673 139.147 197.556 141.141C197.439 143.134 196.636 145.004 195.31 146.372L183.103 158.965Z" fill="#FFD6C4"/>
<path d="M83.1004 296.929C82.8018 295.726 82.7384 294.468 82.9144 293.236C83.0903 292.005 83.5016 290.829 84.1213 289.784L93.1119 274.632C95.2384 271.048 98.5013 268.459 102.268 267.368C106.034 266.277 110.035 266.761 113.495 268.726C109.716 275.789 110.243 281.986 114.8 287.37C107.726 291.163 101.188 296.057 95.3889 301.903C94.3301 302.695 93.1143 303.199 91.8426 303.371C90.5709 303.543 89.2801 303.379 88.0779 302.892C86.8756 302.405 85.7966 301.61 84.9308 300.573C84.065 299.536 83.4374 298.286 83.1004 296.929Z" fill="#2F2E41"/>
<path d="M184.967 277.117C183.606 279.607 181.686 281.671 179.39 283.111C177.094 284.552 174.499 285.32 171.855 285.342L112.127 285.838L109.537 269.339L135.958 260.805L113.681 242.03L138.031 210.739L182.257 256.006C184.842 258.652 186.521 262.192 187.014 266.035C187.508 269.877 186.785 273.789 184.967 277.117Z" fill="#2F2E41"/>
<path d="M102.802 389.954L88.814 389.954C76.2549 295.414 63.4709 200.609 101.248 165.224L145.802 173.189L140.103 214.721L115.236 246.013L102.802 389.954Z" fill="#2F2E41"/>
<path d="M115.098 411.37C114.003 411.698 112.857 411.768 111.736 411.575C110.614 411.382 109.543 410.93 108.592 410.25L93.4042 408.008C90.1405 405.673 87.7831 402.09 86.7892 397.953C85.7954 393.817 86.2359 389.423 88.0255 385.624C94.4574 389.773 100.1 389.194 105.003 384.19C108.467 391.872 114.175 391.403 119.626 397.875C120.348 399.038 120.807 400.373 120.963 401.769C121.12 403.166 120.971 404.584 120.528 405.904C120.085 407.224 119.361 408.409 118.416 409.36C117.472 410.311 116.334 411 115.098 411.37Z" fill="#2F2E41"/>
<path d="M135.958 102.071L110.055 95.2442C114.357 85.5733 114.711 74.8125 112.645 63.3836L130.26 62.8147C130.812 77.0269 132.481 90.3046 135.958 102.071Z" fill="#FFD6C4"/>
<path d="M143.078 190.319C124.221 204.43 110.897 190.802 100.73 169.775C102.143 156.909 99.8549 141.511 95.618 124.781C93.7337 117.401 94.4372 109.514 97.5895 102.677C100.742 95.8393 106.114 90.5482 112.645 87.848L134.922 98.0889C153.838 115.021 157.561 133.363 150.464 152.707L143.078 190.319Z" fill="#0066FF"/>
<path d="M88.8141 116.295L68.0913 128.243L104.874 152.138L109.992 166.002C110.334 166.928 110.5 167.92 110.482 168.918C110.463 169.916 110.259 170.9 109.882 171.809C109.506 172.718 108.965 173.533 108.292 174.205C107.62 174.877 106.829 175.391 105.97 175.717C104.993 176.087 103.951 176.203 102.926 176.057C101.901 175.911 100.921 175.507 100.062 174.875C99.203 174.244 98.4889 173.403 97.9755 172.417C97.4622 171.432 97.1635 170.33 97.1028 169.197L96.5852 159.534L49.8344 142.592C48.2592 142.021 46.823 141.064 45.6345 139.793C44.446 138.523 43.5364 136.972 42.9746 135.258C42.1556 132.759 42.1139 130.034 42.856 127.506C43.5982 124.979 45.0822 122.794 47.0759 121.292L84.6696 92.9685L88.8141 116.295Z" fill="#FFD6C4"/>
<path d="M109.537 118.571C100.894 114.411 93.0351 118.93 83.1152 122.553L81.561 92.3995C91.411 86.6342 100.802 85.0797 109.537 89.5549L109.537 118.571Z" fill="#0066FF"/>
<path d="M119.875 77.7509C129.009 77.7509 136.414 69.6194 136.414 59.5886C136.414 49.5579 129.009 41.4264 119.875 41.4264C110.742 41.4264 103.337 49.5579 103.337 59.5886C103.337 69.6194 110.742 77.7509 119.875 77.7509Z" fill="#FFD6C4"/>
<path d="M139.661 57.2971C123.286 59.0583 110.809 56.1174 102.835 47.7436L102.835 41L138.271 41L139.661 57.2971Z" fill="#2F2E41"/>
</g>
<defs>
<clipPath id="clip0_253_398">
<rect width="551" height="421" fill="white"/>
</clipPath>
</defs>
</svg>
