<svg width="30" height="31" viewBox="0 0 30 31" fill="none" xmlns="http://www.w3.org/2000/svg">
<path fill-rule="evenodd" clip-rule="evenodd" d="M24 4.13333H27C27.7956 4.13333 28.5587 4.45994 29.1213 5.0413C29.6839 5.62266 30 6.41116 30 7.23333V27.9C30 28.7222 29.6839 29.5107 29.1213 30.092C28.5587 30.6734 27.7956 31 27 31H3C2.20435 31 1.44129 30.6734 0.87868 30.092C0.31607 29.5107 0 28.7222 0 27.9L0 7.23333C0 6.41116 0.31607 5.62266 0.87868 5.0413C1.44129 4.45994 2.20435 4.13333 3 4.13333H6V0H8V4.13333H22V0H24V4.13333ZM12 16.5333H6V14.4667H12V16.5333ZM24 14.4667H18V16.5333H24V14.4667ZM12 22.7333H6V20.6667H12V22.7333ZM18 22.7333H24V20.6667H18V22.7333Z" fill="#031A9B"/>
</svg>
