<svg width="20" height="20" viewBox="0 0 20 20" fill="none" xmlns="http://www.w3.org/2000/svg">
<g clip-path="url(#clip0_429_1239)">
<path d="M4.76111 17.1668C6.04749 18.1028 7.56151 18.6764 9.14517 18.8278C10.7288 18.9791 12.3241 18.7027 13.7645 18.0273C15.2049 17.352 16.4376 16.3024 17.3341 14.9882C18.2306 13.6739 18.7579 12.1432 18.8611 10.5557H10.2389L4.76111 17.1668Z" fill="#005BE2"/>
<path d="M18.8611 9.4443C18.774 7.99676 18.334 6.59252 17.5796 5.35404C16.8252 4.11556 15.7793 3.08046 14.533 2.33902C13.2867 1.59758 11.8779 1.17232 10.4296 1.10032C8.98121 1.02832 7.53722 1.31177 6.22355 1.92596C4.90988 2.54014 3.76642 3.4664 2.89291 4.62396C2.0194 5.78151 1.44236 7.1352 1.21212 8.56696C0.981875 9.99873 1.10543 11.4651 1.572 12.8381C2.03857 14.2112 2.83398 15.4492 3.88887 16.4443L9.71665 9.4443H18.8611Z" fill="#005BE2"/>
</g>
<defs>
<clipPath id="clip0_429_1239">
<rect width="20" height="20" fill="white"/>
</clipPath>
</defs>
</svg>
